<svg
    width="200.000000pt"
    height="200.000000pt"
    viewBox="0 0 200.000000 200.000000"
    preserveAspectRatio="xMidYMid meet">

    <g transform="translate(0.000000,200.000000) scale(0.100000,-0.100000)" fill="#f30" stroke="none">
        <path d="M888 1870 c-313 -50 -562 -236 -690 -517 -97 -214 -97 -502 0 -716 89 -196 253 -360 447 -448 216 -98 503 -98 718 -1 196 89 360 253 448 447 74 165 95 390 51 567 -79 321 -329 572 -645 648 -97 23 -249 33 -329 20z m307 -284 c378 -122 547 -565 345 -906 -174 -295 -556 -394 -850 -220 -295 174 -394 556 -220 850 148 251 448 365 725 276z"/>
    </g>
</svg>